<svg id="Livello_1" data-name="Livello 1" xmlns="http://www.w3.org/2000/svg" xmlns:xlink="http://www.w3.org/1999/xlink" viewBox="0 0 80.28 64.11"><defs><style>.cls-1{fill:url(#Sfumatura_senza_nome_45);}</style><linearGradient id="Sfumatura_senza_nome_45" x1="8.36" y1="34.1" x2="71.92" y2="34.1" gradientUnits="userSpaceOnUse"><stop offset="0" stop-color="#ff0092"/><stop offset="0.16" stop-color="#db10a1"/><stop offset="0.53" stop-color="#7f3ac9"/><stop offset="1" stop-color="#0074ff"/></linearGradient></defs><path class="cls-1" d="M17,50.45a3.54,3.54,0,0,0-1.74,3.07,3.49,3.49,0,0,0,3.45,3.53H61.56a3.45,3.45,0,0,0,3-1.78,3.57,3.57,0,0,0-1.29-4.82L40.14,36.94ZM43.59,30.82,66.7,44.32a10.74,10.74,0,0,1,3.86,14.46,10.33,10.33,0,0,1-9,5.33H18.72A10.48,10.48,0,0,1,8.36,53.52a10.64,10.64,0,0,1,5.22-9.2l23.11-13.5V21.74h3.45A5.3,5.3,0,1,0,35,16.44h-6.9a12.09,12.09,0,1,1,24.17,0,12.33,12.33,0,0,1-8.64,11.85Z"/></svg>