<svg id="Livello_1" data-name="Livello 1" xmlns="http://www.w3.org/2000/svg" xmlns:xlink="http://www.w3.org/1999/xlink" viewBox="0 0 80.28 64.11"><defs><style>.cls-1{fill:url(#Sfumatura_senza_nome_45);}</style><linearGradient id="Sfumatura_senza_nome_45" x1="4.58" y1="34" x2="75.7" y2="34" gradientUnits="userSpaceOnUse"><stop offset="0" stop-color="#ff0092"/><stop offset="0.16" stop-color="#db10a1"/><stop offset="0.53" stop-color="#7f3ac9"/><stop offset="1" stop-color="#0074ff"/></linearGradient></defs><path class="cls-1" d="M71.7,7.91V51.37l-.2,1A9.67,9.67,0,1,1,62,40.73a9.93,9.93,0,0,1,1.95.2l4.79,1v-31H27.94V51.37l-.2,1a9.68,9.68,0,1,1-9.48-11.62,9.83,9.83,0,0,1,1.94.2l4.79,1v-34H71.7m4-4H21V37A13.68,13.68,0,1,0,31.66,53.15h.28V14.85H64.76V37A13.68,13.68,0,1,0,75.42,53.15h.28V3.91Z"/></svg>