<svg id="Livello_1" data-name="Livello 1" xmlns="http://www.w3.org/2000/svg" xmlns:xlink="http://www.w3.org/1999/xlink" viewBox="0 0 80.28 64.11"><defs><style>.cls-1{fill:url(#Sfumatura_senza_nome_45);}</style><linearGradient id="Sfumatura_senza_nome_45" x1="9.81" y1="34.16" x2="70.48" y2="34.16" gradientUnits="userSpaceOnUse"><stop offset="0" stop-color="#ff0092"/><stop offset="0.16" stop-color="#db10a1"/><stop offset="0.53" stop-color="#7f3ac9"/><stop offset="1" stop-color="#0074ff"/></linearGradient></defs><path class="cls-1" d="M39.8,64.11a30.54,30.54,0,0,1-11.91-2.46A29.34,29.34,0,0,1,9.81,34.26,29.43,29.43,0,0,1,28.36,6.5,29.36,29.36,0,0,1,61,13.26a2.5,2.5,0,0,1,0,3.53L43.23,34.31,60.36,52.2a2.5,2.5,0,0,1-.07,3.53A29.35,29.35,0,0,1,39.8,64.11Zm0-54.88a25.4,25.4,0,0,0-9.58,1.9A24.5,24.5,0,0,0,14.81,34.26a24.4,24.4,0,0,0,15,22.79A24.46,24.46,0,0,0,55,53.77L37.92,36a2.5,2.5,0,0,1,0-3.51L55.58,15.06A24.26,24.26,0,0,0,39.83,9.23Zm22.08,34a8.47,8.47,0,1,1,8.57-8.36A8.58,8.58,0,0,1,61.91,43.25Zm0-11.93a3.47,3.47,0,1,0,3.57,3.57A3.57,3.57,0,0,0,61.91,31.32ZM37.42,24a5.79,5.79,0,0,1-5.85-5.85,5.83,5.83,0,0,1,5.85-6.06,6,6,0,1,1,0,11.91Zm0-6.91c-.78,0-.85.81-.85,1.06a.81.81,0,0,0,.85.85,1,1,0,0,0,1.06-.85A1,1,0,0,0,37.42,17.09Z"/></svg>