<svg id="Livello_1" data-name="Livello 1" xmlns="http://www.w3.org/2000/svg" viewBox="0 0 80.28 64.11"><defs><style>.cls-1{fill:#ff0092;}.cls-2{fill:#0074ff;}</style></defs><path class="cls-1" d="M5.63,55.18a2,2,0,0,1-2.78-.83L.78,50.84A2.06,2.06,0,0,1,1.5,48L26.07,33.81a2,2,0,0,0,0-3.51L1.5,16.16a2.06,2.06,0,0,1-.72-2.89L2.85,9.76a2,2,0,0,1,2.78-.82L37.42,27.31a2.12,2.12,0,0,1,1,1.75v6a2.12,2.12,0,0,1-1,1.75Z"/><path class="cls-2" d="M47,55.18a2,2,0,0,1-2.79-.83l-2.06-3.51A2.06,2.06,0,0,1,42.87,48L67.44,33.81a2,2,0,0,0,0-3.51L42.87,16.16a2.06,2.06,0,0,1-.72-2.89l2.06-3.51A2,2,0,0,1,47,8.94L78.79,27.31a2.12,2.12,0,0,1,1,1.75v6a2.12,2.12,0,0,1-1,1.75Z"/></svg>