<svg id="Livello_1" data-name="Livello 1" xmlns="http://www.w3.org/2000/svg" xmlns:xlink="http://www.w3.org/1999/xlink" viewBox="0 0 80.28 64.11"><defs><style>.cls-1{fill:none;stroke-linecap:round;stroke-linejoin:round;stroke-width:5px;stroke:url(#Sfumatura_senza_nome_45);}</style><linearGradient id="Sfumatura_senza_nome_45" y1="32.06" x2="80.28" y2="32.06" gradientUnits="userSpaceOnUse"><stop offset="0" stop-color="#ff0092"/><stop offset="0.16" stop-color="#db10a1"/><stop offset="0.53" stop-color="#7f3ac9"/><stop offset="1" stop-color="#0074ff"/></linearGradient></defs><path class="cls-1" d="M15.73,36.5h0A1.51,1.51,0,0,1,17.63,35l7.53,2a1.52,1.52,0,0,1-.38,3H17.25a1.52,1.52,0,0,1-1.52-1.51ZM64,35.31h0a1.51,1.51,0,0,1,.59,1.2v2A1.52,1.52,0,0,1,63.05,40H55.52a1.52,1.52,0,0,1-.39-3l7.53-2h0a1.74,1.74,0,0,1,.39,0,1.49,1.49,0,0,1,.92.32ZM25.19,13c.26-.37.64-.92,2.91-1.32a71.29,71.29,0,0,1,12-.77,71,71,0,0,1,12,.75c2.26.39,2.65.94,2.9,1.3a71.28,71.28,0,0,1,4.31,9.2H20.9A72.57,72.57,0,0,1,25.22,13ZM2.5,21.83a2.39,2.39,0,0,1,2.38-2.39H6.31A5.15,5.15,0,0,1,9.78,21a1.67,1.67,0,0,0,2.69-.6c2.34-5.8,4.55-10.5,5.78-12.26a12.16,12.16,0,0,1,8.37-4.82h0a77.83,77.83,0,0,1,13.47-.84,77.94,77.94,0,0,1,13.48.84c2.68.47,6,1.44,8.36,4.82,1.23,1.77,3.45,6.46,5.78,12.26h0a1.68,1.68,0,0,0,2.7.6,5.17,5.17,0,0,1,3.43-1.6h1.47a2.38,2.38,0,0,1,1.74.67,2.34,2.34,0,0,1,.73,1.72v2.81a2.49,2.49,0,0,1-2.51,2.51h-2A1.68,1.68,0,0,0,72,29.83c.19.25.37.5.55.76a15.58,15.58,0,0,1,2.51,9v19.6a2.42,2.42,0,0,1-2.43,2.42H67.33a2.42,2.42,0,0,1-2.43-2.42V56.11a1.67,1.67,0,0,0-1.67-1.67H17.06a1.68,1.68,0,0,0-1.68,1.67v3.08A2.42,2.42,0,0,1,13,61.61H7.64a2.42,2.42,0,0,1-2.42-2.42V39.56a15.4,15.4,0,0,1,2.51-9c.17-.26.35-.51.54-.77h0a1.7,1.7,0,0,0,.16-1.76,1.68,1.68,0,0,0-1.5-.92H6.7L5,27.13A2.51,2.51,0,0,1,2.5,24.62V21.83Z"/></svg>