<svg id="Livello_1" data-name="Livello 1" xmlns="http://www.w3.org/2000/svg" xmlns:xlink="http://www.w3.org/1999/xlink" viewBox="0 0 80.28 64.11"><defs><style>.cls-1{fill:url(#Sfumatura_senza_nome_45);}</style><linearGradient id="Sfumatura_senza_nome_45" x1="7661.2" y1="36.1" x2="7728.6" y2="36.1" gradientTransform="matrix(-1, 0, 0, 1, 7735.04, 0)" gradientUnits="userSpaceOnUse"><stop offset="0" stop-color="#ff0092"/><stop offset="0.16" stop-color="#db10a1"/><stop offset="0.53" stop-color="#7f3ac9"/><stop offset="1" stop-color="#0074ff"/></linearGradient></defs><path class="cls-1" d="M68,48.36l5.9-3V29H68.91a20.57,20.57,0,0,0-9.72-9.68V8.08l-3.26.37c-8.73,1-12.36,4.76-13.68,8.77H29.88a20.46,20.46,0,0,0-14.65,6.19v-.33a2.93,2.93,0,0,1-2.93-2.93H6.44a8.8,8.8,0,0,0,5.29,8.06,20.46,20.46,0,0,0,6.44,26.35v9.55H35.75V58.25h2.93v5.86H56.26V57.37A20.68,20.68,0,0,0,68,48.36Zm0-6.57-4.26,2.13-.44.81a14.75,14.75,0,0,1-10.44,7.43l-2.44.41v5.68H44.54V52.39H29.88v5.86H24v-7l-1.47-.84a14.65,14.65,0,0,1,7.32-27.34H47.47V21.34c0-2.54.86-5.19,5.86-6.49V26h5.78a14.75,14.75,0,0,1,5.08,6.84l.69,2H68Z"/></svg>