<svg id="Livello_1" data-name="Livello 1" xmlns="http://www.w3.org/2000/svg" xmlns:xlink="http://www.w3.org/1999/xlink" viewBox="0 0 80.28 64.11"><defs><style>.cls-1{fill:url(#Sfumatura_senza_nome_45);}</style><linearGradient id="Sfumatura_senza_nome_45" x1="10.8" y1="32.14" x2="69.49" y2="32.14" gradientUnits="userSpaceOnUse"><stop offset="0" stop-color="#ff0092"/><stop offset="0.16" stop-color="#db10a1"/><stop offset="0.53" stop-color="#7f3ac9"/><stop offset="1" stop-color="#0074ff"/></linearGradient></defs><path class="cls-1" d="M34.81,39.34V48.1h-8v16H53.48v-16h-8V39.34A18.76,18.76,0,0,0,56.2,31L69.49,23V2.87h-8V.21H18.8V2.86h-8V23l13.28,8A18.75,18.75,0,0,0,34.81,39.34ZM48.15,58.75h-16V53.43h16ZM58.82,14.61,61.49,12V8.19h2.66V20l-5.42,3.24c.05-.57.09-1.15.09-1.74ZM24.14,5.53h32V9.75L55,10.85H37.47v5.32h16v5.32a13.13,13.13,0,0,1-1.32,5.67l0,0,0,0a13.27,13.27,0,0,1-24,0l0,0-.06,0a13.16,13.16,0,0,1-1.32-5.67V12.41L24.14,9.75ZM16.13,20V8.19H18.8V12l2.67,2.66v6.88a16.61,16.61,0,0,0,.09,1.74Z"/></svg>