<svg id="Livello_1" data-name="Livello 1" xmlns="http://www.w3.org/2000/svg" xmlns:xlink="http://www.w3.org/1999/xlink" viewBox="0 0 80.28 64.11"><defs><style>.cls-1{fill:url(#Sfumatura_senza_nome_45);}.cls-2{fill:url(#Sfumatura_senza_nome_45-2);}.cls-3{fill:url(#Sfumatura_senza_nome_45-3);}</style><linearGradient id="Sfumatura_senza_nome_45" x1="37.59" y1="8.76" x2="54.7" y2="8.76" gradientUnits="userSpaceOnUse"><stop offset="0" stop-color="#ff0092"/><stop offset="0.16" stop-color="#db10a1"/><stop offset="0.53" stop-color="#7f3ac9"/><stop offset="1" stop-color="#0074ff"/></linearGradient><linearGradient id="Sfumatura_senza_nome_45-2" x1="27.41" y1="55.56" x2="44.52" y2="55.56" xlink:href="#Sfumatura_senza_nome_45"/><linearGradient id="Sfumatura_senza_nome_45-3" x1="10.54" y1="38.94" x2="69.74" y2="38.94" xlink:href="#Sfumatura_senza_nome_45"/></defs><path class="cls-1" d="M46.15,17.32h0A8.56,8.56,0,1,1,54.7,8.76,8.57,8.57,0,0,1,46.14,17.32Zm0-13.41A4.85,4.85,0,1,0,51,8.76,4.86,4.86,0,0,0,46.14,3.91Z"/><path class="cls-2" d="M36,64.11A8.56,8.56,0,1,1,36,47h0a8.56,8.56,0,0,1,0,17.11ZM36,50.7a4.86,4.86,0,1,0,4.85,4.86A4.86,4.86,0,0,0,36,50.7Z"/><path class="cls-3" d="M55.82,64.09H49.34a1.86,1.86,0,0,1-1.84-1.64L46.11,50.51l-6.68-6.64-10.21,6.3a1.84,1.84,0,0,1-1.76.1L11.6,42.78a1.86,1.86,0,0,1-.91-2.39l2.65-6.34a1.87,1.87,0,0,1,2.34-1L26.36,36.9l1.92-2.07L23.21,35a1.92,1.92,0,0,1-1.33-.51,1.84,1.84,0,0,1-.57-1.31L21,16.83A1.84,1.84,0,0,1,22.72,15L38,13.8a2,2,0,0,1,.42,0l11.1,1.67a2.37,2.37,0,0,1,.36.09l7.53,2.74L68,19.08a1.85,1.85,0,0,1,1.72,1.85v5.89a1.85,1.85,0,0,1-1.85,1.85H55.8a2.07,2.07,0,0,1-.35,0l-4.17-.81-1.07,6.76,7.16,10.82a1.82,1.82,0,0,1,.3,1V62.24A1.85,1.85,0,0,1,55.82,64.09ZM51,60.38h3V47L46.73,36a1.83,1.83,0,0,1-.29-1.31l1.48-9.36a1.87,1.87,0,0,1,.77-1.23,1.91,1.91,0,0,1,1.41-.3L56,25H66V22.65L56.83,22a1.8,1.8,0,0,1-.5-.11l-7.6-2.76L38,17.5l-13.27,1L25,31.22l3-.08L28,23.36A1.84,1.84,0,0,1,28.59,22,1.8,1.8,0,0,1,30,21.53l4,.23a1.85,1.85,0,0,1,1.72,2.13l-1.53,9.66a1.82,1.82,0,0,1-.48,1l-5.4,5.8a1.87,1.87,0,0,1-2,.48L16.08,37.1l-1.29,3.09,13.34,6.3L38.73,40a1.84,1.84,0,0,1,2.27.26l8.18,8.13a1.87,1.87,0,0,1,.53,1.1Z"/></svg>