<?xml version="1.0" encoding="utf-8"?>
<!-- Generator: Adobe Illustrator 25.0.0, SVG Export Plug-In . SVG Version: 6.00 Build 0)  -->
<svg version="1.1" id="Livello_1" xmlns="http://www.w3.org/2000/svg" xmlns:xlink="http://www.w3.org/1999/xlink" x="0px" y="0px"
	 viewBox="0 0 112.76 64.35" style="enable-background:new 0 0 112.76 64.35;" xml:space="preserve">
<style type="text/css">
	.st0{fill:#FF0092;}
	.st1{fill:#0074FF;}
	.st2{fill:#4D4D4D;}
</style>
<path class="st0" d="M30.58,50.71c-0.77,0.39-1.7,0.15-2.08-0.62l-1.54-2.62c-0.46-0.77-0.23-1.7,0.54-2.16l18.36-10.57
	c1-0.54,1-2.08,0-2.62L27.5,21.54c-0.77-0.46-1-1.39-0.54-2.16l1.54-2.62c0.39-0.77,1.31-1,2.08-0.62l23.76,13.73
	c0.46,0.31,0.77,0.77,0.77,1.31v4.47c0,0.54-0.31,1-0.77,1.31L30.58,50.71z"/>
<path class="st1" d="M61.5,50.71c-0.77,0.39-1.7,0.15-2.08-0.62l-1.54-2.62c-0.46-0.77-0.23-1.7,0.54-2.16l18.36-10.57
	c1-0.54,1-2.08,0-2.62L58.42,21.54c-0.77-0.46-1-1.39-0.54-2.16l1.54-2.62c0.39-0.77,1.31-1,2.08-0.62l23.76,13.73
	c0.46,0.31,0.77,0.77,0.77,1.31v4.47c0,0.54-0.31,1-0.77,1.31L61.5,50.71z"/>
<g>
	<path class="st2" d="M109.44,7.99C105.65,2.64,98.63,0,88.02,0h-9.45c-1.07,0-1.95,0.88-1.95,1.95v3.9c0,1.07,0.88,1.95,1.95,1.95
		h9.45v0c4.47,0,7.97,0.49,10.6,1.56c3.12,0.97,4.58,3.02,5.26,4.78c0,0,1.28,1.6,1.07,18.04v8.97c0,2.63,0,6.63-2.05,9.85
		c-2.34,3.7-7.4,5.55-14.89,5.56v0h-9.45c-1.07,0-1.95,0.88-1.95,1.95v3.9c0,1.07,0.88,1.95,1.95,1.95h9.45
		c10.42-0.01,17.62-3.13,21.52-9.26c3.22-4.97,3.22-10.63,3.22-13.94V23.3C112.76,18.62,112.76,12.77,109.44,7.99z"/>
	<path class="st2" d="M34.18,0h-9.45C14.32,0.01,7.11,3.13,3.22,9.26C0,14.23,0,19.89,0,23.2v17.84c0,4.68,0,10.53,3.31,15.31
		c3.8,5.36,10.81,7.99,21.42,7.99h9.45c1.07,0,1.95-0.88,1.95-1.95v-3.9c0-1.07-0.88-1.95-1.95-1.95h-9.45v0
		c-4.47,0-7.97-0.49-10.6-1.56c-3.12-0.97-4.58-3.02-5.26-4.78c0,0-1.28-1.6-1.07-18.04V23.2c0-2.63,0-6.63,2.05-9.85
		c2.34-3.7,7.4-5.55,14.89-5.56v0h9.45c1.07,0,1.95-0.88,1.95-1.95v-3.9C36.13,0.88,35.26,0,34.18,0z"/>
</g>
</svg>
