<?xml version="1.0" encoding="utf-8"?>
<!-- Generator: Adobe Illustrator 25.0.0, SVG Export Plug-In . SVG Version: 6.00 Build 0)  -->
<svg version="1.1" id="Livello_1" xmlns="http://www.w3.org/2000/svg" xmlns:xlink="http://www.w3.org/1999/xlink" x="0px" y="0px"
	 viewBox="0 0 376 97.5" style="enable-background:new 0 0 376 97.5;" xml:space="preserve">
<style type="text/css">
	.st0{fill:#4D4D4D;}
	.st1{fill:#FF0092;}
	.st2{fill:#0074FF;}
</style>
<g>
	<path class="st0" d="M1.95,97.5C0.88,97.5,0,96.72,0,95.55V78.97c0-6.24,2.83-11.02,8.58-14.14c4.39-2.44,10.04-3.61,15.5-4.68
		c11.9-2.53,17.45-4.39,17.45-10.92V38.71c0-4,0-8.09-1.85-10.72c-0.98-1.36-2.34-2.44-4.39-3.22c-2.63-0.98-6.14-1.46-10.63-1.46
		c-7.51,0-12.48,1.85-14.92,5.56C7.8,32.08,7.8,36.07,7.8,38.71v11.7c0,1.07-0.88,1.95-1.95,1.95h-3.9C0.88,52.36,0,51.48,0,50.41
		v-11.7c0-3.31,0-8.97,3.22-13.94c3.9-6.14,11.12-9.26,21.45-9.26c10.63,0,17.65,2.63,21.45,8c3.22,4.68,3.22,10.53,3.22,15.21
		v10.53c0,6.14-2.83,10.82-8.39,13.84c-4.39,2.34-9.95,3.51-15.31,4.68C13.46,70.3,7.8,72.25,7.8,78.97v16.57
		c0,1.17-0.88,1.95-1.95,1.95H1.95z"/>
	<path class="st0" d="M86.28,21.74c0,1.07-0.78,1.85-1.85,1.95h-0.88c-6.14,0.29-10.24,2.05-12.28,5.26
		c-1.66,2.54-1.85,5.75-1.95,8.09v39c0,1.07-0.88,1.95-1.95,1.95h-3.9c-1.07,0-1.95-0.88-1.95-1.95v-58.3
		c0-1.07,0.88-1.95,1.95-1.95h3.9c1.17,0,1.95,0.88,1.95,1.95v2.24c3.61-2.53,8.29-3.9,14.14-4.09h0.88
		c1.07-0.1,1.95,0.78,1.95,1.95V21.74z"/>
	<path class="st0" d="M121.19,78c-8.19,0-14.14-1.46-18.23-4.58c-3.31-2.44-5.36-5.85-6.24-10.24c0,0-0.19-1.46-0.19-2.24V36.95
		c0-3.31,0-8.87,3.22-13.94c3.9-6.14,11.12-9.26,21.45-9.26c10.63,0,17.65,2.63,21.45,8c2.93,4.29,3.22,9.46,3.31,13.94
		c0.2,3.8-2.34,7.41-3.8,8.87c-1.56,1.66-3.51,2.93-5.95,4.1c-4.09,1.85-9.07,2.92-13.84,3.9c-4.58,0.88-9.36,1.95-12.77,3.61
		c-2.15,0.97-3.61,2.24-4.39,3.7c-0.68,1.17-0.68,2.54-0.2,3.8c0.49,1.46,1.36,2.54,2.63,3.51c2.63,1.95,7.21,3.02,13.55,3.02
		c7.51,0,12.58-1.85,14.92-5.65c1.37-2.05,1.76-4.58,1.95-6.83v-1.07c0.1-1.07,0.88-1.85,1.95-1.85h3.9c1.17,0,2.05,0.88,1.95,1.95
		v0.88c-0.1,3.22-0.78,7.31-3.12,11.12C138.84,74.88,131.52,78,121.19,78z M121.19,21.55c-7.51,0-12.48,1.95-14.92,5.66
		c-1.95,3.12-1.95,7.12-1.95,9.75v13.16c0.58-0.39,1.17-0.68,1.85-1.07c4.29-2.05,9.55-3.12,14.53-4.19
		c8.77-1.76,14.92-3.32,16.96-7.22c0.29-0.58,0.49-1.27,0.49-1.95c-0.1-3.51-0.29-7.02-1.95-9.46c-0.97-1.36-2.34-2.44-4.39-3.12
		C129.18,22.03,125.67,21.55,121.19,21.55z"/>
	<path class="st0" d="M182.9,78c-10.43,0-17.65-3.12-21.55-9.26c-2.53-4-3.12-8.29-3.22-11.51v-0.58c0-1.07,0.88-1.95,1.95-1.95h3.9
		c1.07,0,1.95,0.78,1.95,1.85v0.58c0.1,2.34,0.49,5.07,1.95,7.41c2.44,3.7,7.41,5.65,15.01,5.65c7.41,0,12.58-1.27,15.02-3.8
		c1.66-1.66,1.85-3.61,1.95-5.95c-0.1-6.63-5.85-8.58-17.94-11.12c-5.36-1.07-10.92-2.24-15.31-4.68c-5.66-3.02-8.48-7.7-8.48-13.84
		c0,0-0.2-7.02,4.19-11.31c4-4.09,10.73-6.05,20.57-6.05c10.33,0,17.65,3.12,21.55,9.26c2.54,4,3.02,8.29,3.22,11.6v0.49
		c0,1.07-0.88,1.95-1.95,1.95h-3.9c-1.07,0-1.95-0.88-1.95-1.85c0-0.19,0-0.39-0.1-0.49c-0.1-2.44-0.49-5.17-1.95-7.51
		c-2.34-3.8-7.41-5.65-14.92-5.65c-7.41,0-12.58,1.27-15.01,3.8c-1.66,1.66-1.85,3.51-1.95,5.85c0,6.43,5.66,8.29,17.55,10.82
		c5.46,1.17,11.11,2.34,15.6,4.78c5.66,3.12,8.77,8,8.58,14.92c-0.2,2.34-0.49,6.73-4.19,10.43C199.38,76.05,192.65,78,182.9,78z"/>
	<path class="st0" d="M251.05,21.45c0,1.07-0.88,1.95-1.95,1.95h-9.75v52.65c0,1.07-0.88,1.95-1.95,1.95h-3.9
		c-1.07,0-1.95-0.88-1.95-1.95V23.4h-9.75c-1.07,0-1.95-0.88-1.95-1.95v-3.9c0-1.07,0.88-1.95,1.95-1.95h9.75V1.95
		c0-1.07,0.88-1.95,1.95-1.95h3.9c1.07,0,1.95,0.88,1.95,1.95V15.6h9.75c1.07,0,1.95,0.88,1.95,1.95V21.45z"/>
	<path class="st1" d="M293.83,64.36c-0.77,0.39-1.7,0.15-2.08-0.62l-1.54-2.62c-0.46-0.77-0.23-1.7,0.54-2.16l18.36-10.57
		c1-0.54,1-2.08,0-2.62L290.74,35.2c-0.77-0.46-1-1.39-0.54-2.16l1.54-2.62c0.39-0.77,1.31-1,2.08-0.62l23.76,13.73
		c0.46,0.31,0.77,0.77,0.77,1.31v4.47c0,0.54-0.31,1-0.77,1.31L293.83,64.36z"/>
	<path class="st2" d="M324.75,64.36c-0.77,0.39-1.7,0.15-2.08-0.62l-1.54-2.62c-0.46-0.77-0.23-1.7,0.54-2.16l18.36-10.57
		c1-0.54,1-2.08,0-2.62L321.66,35.2c-0.77-0.46-1-1.39-0.54-2.16l1.54-2.62c0.39-0.77,1.31-1,2.08-0.62l23.76,13.73
		c0.46,0.31,0.77,0.77,0.77,1.31v4.47c0,0.54-0.31,1-0.77,1.31L324.75,64.36z"/>
	<g>
		<path class="st0" d="M372.69,21.65c-3.8-5.36-10.81-7.99-21.42-7.99h-9.45c-1.07,0-1.95,0.88-1.95,1.95v3.9
			c0,1.07,0.88,1.95,1.95,1.95h9.45v0c4.47,0,7.97,0.49,10.6,1.56c3.12,0.97,4.58,3.02,5.26,4.78c0,0,1.28,1.6,1.07,18.04v8.97
			c0,2.63,0,6.63-2.05,9.85c-2.34,3.7-7.4,5.55-14.89,5.56v0h-9.45c-1.07,0-1.95,0.88-1.95,1.95v3.9c0,1.07,0.88,1.95,1.95,1.95
			h9.45c10.42-0.01,17.62-3.13,21.52-9.26C376,63.76,376,58.11,376,54.79V36.95C376,32.27,376,26.42,372.69,21.65z"/>
		<path class="st0" d="M297.42,13.65h-9.45c-10.42,0.01-17.62,3.13-21.52,9.26c-3.22,4.97-3.22,10.63-3.22,13.94V54.7
			c0,4.68,0,10.53,3.31,15.31c3.8,5.36,10.81,7.99,21.42,7.99h9.45c1.07,0,1.95-0.88,1.95-1.95v-3.9c0-1.07-0.88-1.95-1.95-1.95
			h-9.45v0c-4.47,0-7.97-0.49-10.6-1.56c-3.12-0.97-4.58-3.02-5.26-4.78c0,0-1.28-1.6-1.07-18.04v-8.97c0-2.63,0-6.63,2.05-9.85
			c2.34-3.7,7.4-5.55,14.89-5.56v0h9.45c1.07,0,1.95-0.88,1.95-1.95v-3.9C299.37,14.53,298.5,13.65,297.42,13.65z"/>
	</g>
</g>
</svg>
